<svg xmlns="http://www.w3.org/2000/svg" viewBox="0 0 488.615 490.396"><defs><style>.c{fill:#f9b995}.d{fill:#232323}.e{fill:#ef9673}.f{fill:#f29886}.g{fill:#f4e4dc}.h{fill:#302c38}.i{fill:#e3d6c6}.j{fill:#cebeab}.l{fill:#f9f0e8}.o{fill:#88c0cf}.r{fill:#fce0c3}</style></defs><path d="M34.021 475.11a32.2 32.2 0 0 1-32.219-32.046v-.341c-.032-33.3 43.747-60.716 35.742-111.986-5.266-33.731-28.807-60.853-35.237-94.309-7.377-38.385 3.058-82.635 29.8-110.175a61.486 61.486 0 0 1 40.137-18.254c9.836-.66 21.188-2.342 31.661-8.112 17.522-9.894 30.8-25.442 46.815-39.576 23.227-19.081 50.683-23.321 77.7-26.855 56.1-7.067 114.082 2.827 169.237 33.922 29.207 16.254 69.053 44.523 67.133 92.579a79.967 79.967 0 0 1-4.064 24.028c-7.649 24.429-9.133 31.8-17.285 51.59-5.393 12.014-5.3 26.855.839 40.282 18.628 40.231 21.109 45.84 37.574 81.978 8.677 19.045 8.8 47.383 1.557 73.144s-14.322 43.51-41.447 43.51H112.848c-41.787.31-65.286.532-78.827.621Z" fill="#eaf6ff"/><path d="M36.83 475.037c230.79-1.658 248.907-1.435 285.142-.987 47.11.582 116.428-2.05 116.649 2.468.04.814-2.149 2.157-5.071 3.949a42.53 42.53 0 0 1-11.137 4.627c-40.184 8.989-255.548 3.829-255.548 3.829-30.3-.726-45.452-1.089-46.069-1.052 0 0-20.336 1.254-77.676-2.366-.816-.051-7.142-.542-11.116-5.279-1.61-1.919-1.458-2.895-1.371-3.214.529-1.938 4.729-1.964 6.197-1.975Z" fill="#022f5f"/><path class="c" d="m242.751 124.505-2.521 4.446 10.474 29.866 11.23-20.39ZM142.812 50.476c.247 3.976.467 7.623.9 10.886a.346.346 0 0 0 .021.165 39.841 39.841 0 0 0 1.571 7.544c.027.082.054.134.081.216a19.337 19.337 0 0 0 5.292 8.5 16.8 16.8 0 0 0 9.379 4.771c.082 1.453.165 2.9.275 4.378 1.207 3.127 7.239 18.606 9.022 23.213 3.291-4.662 16.261-23.094 19.469-27.646q-1.193-19.209-2.358-38.418c.082-1.453.548-12.093-7.322-18.839-9.187-7.9-23.583-5.155-30.466 1.508a20.5 20.5 0 0 0-4.415 6.472c-1.833 4.114-1.97 8.502-1.449 17.25Z"/><path class="d" d="M166.691 53.718a1.6 1.6 0 1 0 1.488-1.818 1.664 1.664 0 0 0-1.488 1.818ZM146.413 54.955a1.6 1.6 0 1 0 1.488-1.819 1.664 1.664 0 0 0-1.488 1.819Z"/><path class="e" d="M162.11 65.077a.251.251 0 0 0 .219-.267.247.247 0 0 0-.268-.225c-2.2.193-4.058-.293-4.53-1.183a2.641 2.641 0 0 1-.35-.958 16.537 16.537 0 0 1-.09-1.726l-.349-8.941a.247.247 0 1 0-.493.019l.349 8.937a16.9 16.9 0 0 0 .094 1.781 3 3 0 0 0 .388 1.094c.586 1.103 2.612 1.745 5.03 1.469Z"/><path class="f" d="M171.101 64.254a3.542 3.542 0 1 0 3.32-3.751 3.543 3.543 0 0 0-3.32 3.751Z"/><path class="e" d="M160.362 74.706a8.533 8.533 0 0 0 2.549-.593 8.715 8.715 0 0 0 2.516-1.542.248.248 0 1 0-.327-.372 8.215 8.215 0 0 1-2.372 1.455 7.886 7.886 0 0 1-2.6.57 8.018 8.018 0 0 1-2.683-.4 8.209 8.209 0 0 1-2.465-1.295.247.247 0 1 0-.3.392 8.67 8.67 0 0 0 2.611 1.374 8.424 8.424 0 0 0 2.854.419c.063.001.136-.003.217-.008Z"/><path class="f" d="M143.741 61.528a41.1 41.1 0 0 0 1.571 7.544 3.884 3.884 0 0 0-.556-7.747 3.5 3.5 0 0 0-1.015.203Z"/><path class="g" d="M175.082 45.064a1.191 1.191 0 0 1 .24.8 1.032 1.032 0 0 1-.241.473c-.8.9-7.97.477-9.415-.7a1.141 1.141 0 0 1-.5-.807.933.933 0 0 1 .274-.571c1.027-1.091 8.849-.344 9.642.805ZM152.75 44.65a1.2 1.2 0 0 1 .441.71 1.038 1.038 0 0 1-.11.52c-.536 1.073-7.57 2.536-9.272 1.776-.163-.073-.6-.267-.693-.648a.934.934 0 0 1 .116-.624c.706-1.319 8.453-2.636 9.518-1.734Z"/><path class="g" d="M181.944 45.921c-1.7-5.812-3.063-6.892-3.764-7.333a6.359 6.359 0 0 0-3.263-.93c-1.041.077-1.441.515-2.817.736a10.35 10.35 0 0 1-2.849 0c-2.763-.41-3.271-2.182-6.149-3.341a11.3 11.3 0 0 0-5.709-.877c-.869.117-1.574.379-6.246 3.188-3.786 2.276-4.3 2.7-5.582 2.846a8.107 8.107 0 0 1-5.191-1.332 9.729 9.729 0 0 1-3.84-6.194 13.892 13.892 0 0 1 .938-8.958c2.386-5.186 7.266-7.273 10.418-8.621 3.989-1.705 7.726-2.8 11.282-1.857 2.448.649 3.425 1.786 6.313 1.968 2.707.165 3.308-.821 6.117-1.24 4.254-.645 9.7.606 12.872 3.921 2 2.081 1.32 3.14 3.8 5.466 2.554 2.39 3.9 1.84 5.8 3.734 2.646 2.631 2.957 7.923 2.9 9.828a15.459 15.459 0 0 1-2.759 9.057c-2.889 3.935-8.283 6.787-10.558 5.259-.839-.568-.514-1.228-1.713-5.32Z"/><path class="c" d="M182.62 62.16c7.142-3.238 11.258-8.5 10.472-12.809-.338-1.852-1.735-4.366-4.141-4.975-2.61-.662-5.831 1.065-7.584 4.467Z"/><path class="e" d="M186.831 50.362a4.915 4.915 0 0 1 3.389-1.87.233.233 0 0 1 .06.461 4.824 4.824 0 0 0-3.081 1.691 4.084 4.084 0 0 0-.783 1.634 2.646 2.646 0 0 1 1.34-.446 2.426 2.426 0 0 1 1.749.717.25.25 0 0 1 0 .352.246.246 0 0 1-.349-.006 2 2 0 0 0-1.4-.622 2.345 2.345 0 0 0-1.406.487 4.579 4.579 0 0 0 0 1.292.162.162 0 0 1-.319.059 4.642 4.642 0 0 1 .8-3.749Z"/><g><path class="h" d="M217.324 479.522c2.28 1.233 6.714-2.453 22.886-6.519 8.066-2.027 4.871-6.908 7.777-9.208 1.582 4.916 1.714 6.323 2.861 5.9 2.5-.931 6.373-1.784 7.393-3.332a4.517 4.517 0 0 0 .342-3.345c-.55-2.814-.787-3.792-2.023-8.67a37.414 37.414 0 0 0-1.354-4.944c-.836-2.182-1.255-3.273-2.091-3.869-1.444-1.03-2.953-.088-8.9 1.777-6.12 1.917-7.493 2.021-8.543 3.722-.789 1.278-.6 2.165-1.85 4.211a18.465 18.465 0 0 1-2.907 3.382c-10.277 11.537-15.336 14.474-15.293 17.756a3.722 3.722 0 0 0 1.702 3.139ZM119.278 479.391c1.8 1.861 7.142-.322 23.787.663 8.3.491 6.722-5.125 10.185-6.445.031 5.164-.266 6.546.956 6.483 2.662-.137 6.615.214 8.052-.955a4.515 4.515 0 0 0 1.332-3.087c.321-2.848.39-3.852.677-8.876a37.369 37.369 0 0 0 .194-5.123c-.142-2.332-.213-3.5-.831-4.318-1.068-1.417-2.791-.972-9.024-.982-6.413-.01-7.754-.324-9.266.982-1.137.982-1.22 1.886-3.03 3.46a18.433 18.433 0 0 1-3.79 2.351c-13.27 7.914-18.978 9.195-19.923 12.338a3.724 3.724 0 0 0 .681 3.509Z"/><path class="i" d="M138.765 215.776a1404.356 1404.356 0 0 0-13.857 100.694q-1.711 16.969-2.974 33.49c8.625 56.09 15.029 96.792 15.939 102.518.211 1.326.728 4.515 3.154 5.983 1.37.829 2.451.531 6.749.527 1.83 0 6.975-.007 11.1.138 4.665.164 6.206.773 7.684-.337 1.662-1.248 1.829-3.555 1.908-4.46.72-8.3-7.353-91.24-8.338-101.318l15.123-73.067c1.933 12.61 8.852 60.142 10.365 71.078a1323.87 1323.87 0 0 1 7.4 20.237s11.587 32.457 35.374 78.153a7.081 7.081 0 0 0 2.8 3.127c3.363 1.854 6-1.143 15.512-3.455 4.366-1.062 7.293-1.277 8.49-3.62a5.6 5.6 0 0 0 .348-3.455c-.815-6.145-1.223-9.218-2.573-12.29-2.6-5.9-14.862-38.781-31.888-84.16q3.793-31.537 6.49-65.614 2.577-33.161 3.66-64.162Z"/><path class="j" d="M210.08 234.157a49.631 49.631 0 0 0 6.307 11.846 49.046 49.046 0 0 0 9.844 10.228.515.515 0 0 0 .384.137.615.615 0 0 0 .384-1.1 33.69 33.69 0 0 1-2-1.673 51.333 51.333 0 0 1-7.623-8.309 47.28 47.28 0 0 1-5.375-9.707 15.308 15.308 0 0 1-.768-1.837.621.621 0 0 0-.795-.384.642.642 0 0 0-.358.799ZM174.908 279.696h.07a.619.619 0 0 0 .544-.683l-2.1-18.487a.59.59 0 0 0-.683-.544.619.619 0 0 0-.544.683l2.1 18.487a.617.617 0 0 0 .613.544Z"/></g><path d="M55.913 479.846a2.742 2.742 0 0 0 2.742-2.742V258.445a15.3 15.3 0 0 1 4.75-11.359 13.692 13.692 0 0 1 10.286-3.859c7.332.525 13.162 7.325 12.991 15.158a2.743 2.743 0 1 0 5.484.118c.232-10.708-7.882-20.015-18.085-20.747a19.187 19.187 0 0 0-14.447 5.347 20.765 20.765 0 0 0-6.464 15.385v218.616a2.741 2.741 0 0 0 2.743 2.742Z" fill="#a56357"/><g><path class="c" d="M85.493 218.979c-1.1.638-7.823 4.579-8.518 4.967-4.765 2.654-6.518 3.12-9.11 4.613a30.14 30.14 0 0 0-7.361 5.99c-2.413 2.714-3.889 6.781-6.854 14.913-.227.622-.7 1.952-.135 2.493.416.4 1.215.193 1.481.123 3.177-.825 4.348-7.845 8.983-11.585a13.214 13.214 0 0 1 6.951-2.721c1.783 0 3.139.975 3.316 2.09a2.854 2.854 0 0 1-1.039 2.243 5.484 5.484 0 0 1-2.786 1.089 15.144 15.144 0 0 0-4.2 1.728 5.819 5.819 0 0 0 1.975 1.727c3.447 1.8 7.821-.78 9.008-1.481a19.44 19.44 0 0 0 5.382-4.728 19.916 19.916 0 0 0 1.981-3.045l8.828-4.1Z"/><path class="l" d="M136.929 95.67c-6.315 1.163-9.544 5.943-11.62 11.983-4.958 14.428-1.611 63.452-1.611 63.452a20.049 20.049 0 0 1-1.48 9.625 18.688 18.688 0 0 1-3.327 5.081c-16.929 18.945-27.77 26.016-27.77 26.016-4.239 2.765-7.905 4.743-8.144 8.144-.068.961.157 1.754 3.866 8.309 3.436 6.074 3.969 6.675 4.832 7.156 3.36 1.872 7.956-.185 11.095-1.835 5.893-3.1 19.235-12.972 35.983-27.2L136.929 95.67Z"/><path d="M134.532 155.512s-1.728-39.049-.137-55.365c.725-6.032 2.156-3.4 19.414-10.42.384-.165.767-.3 1.152-.466a196.19 196.19 0 0 0 5.374-2.322c.494-.082 1.016-.173 1.509-.255a1790.588 1790.588 0 0 1 8.748 14.506c1.7-1.975 12.257-14.2 15.85-18.345.8-.11 1.563-.247 2.358-.357 10.018 3.484 19.394 6.576 31.508 10.119a537 537 0 0 1 14.2 121.7c0 3.126-.027 6.28-.082 9.379a18.367 18.367 0 0 1-1.618 2.825c-5.484 7.513-86.543 2.029-86.543 2.029-1.728-.11-6.417-.412-9.323-3.729-2.715-3.126-2.414-7.4-2.414-8.857-.023-12.838.525-48.76.004-60.442Z" fill="#e0ba99"/><path class="l" d="M227.932 177.723c.082 5.786-1.1 6.554-11.188 41.27-2 6.855-3.62 12.614-4.744 16.591a47.368 47.368 0 0 0 13 18.016c2.8-3.7 5.073-7.02 6.8-9.68 0 0 15.214-23.342 22.706-59.478a46.48 46.48 0 0 0-2.3-27.943c-6.862-17.856-18.1-56.955-28.3-62.632a11.223 11.223 0 0 0-5.285-1.415c-3.65.1-6.343 2.424-7.9 3.774a22.79 22.79 0 0 0-5.073 6.691c-4.734 10.1 5.151 31.858 5.923 33.647 10.849 25.145 16.306 37.816 16.361 41.159Z"/><path d="M164.752 98.337c0 .028.027.055.027.082 1.536 3.894 3.043 7.811 4.579 11.732 2.989-4.223 5.951-8.441 8.94-12.664-.8-.713-1.673-1.453-2.578-2.221-1.728 1.974-3.428 3.949-5.128 5.923l-3.291-5.595c-.849.906-1.699 1.811-2.549 2.743Z" fill="#eadace"/><path class="l" d="M175.718 95.267c11.37 9.645 11.391 10.842 13.08 7.98 1.473-2.5 5.375-17.249 5.759-18.7a14.622 14.622 0 0 0-5.7-4.5c-.797.931-9.572 11.077-13.139 15.22ZM154.962 89.26c4.084 19.186 4.078 15.308 9.817 9.159 1.015-1.1 1.865-2.056 2.523-2.824a1979.877 1979.877 0 0 1-7.212-11.791 13.713 13.713 0 0 0-2.742 2.167 13.1 13.1 0 0 0-2.386 3.289Z"/></g><path class="g" d="M178.108 81.903a6.722 6.722 0 0 1-3.156 3.148c-5.05 3.4-10.527 4.753-13.621 4.487a16.366 16.366 0 0 1-6.8-2.127c-3.885-2.328-5.3-5.641-7.845-11.606-1.28-3-1.12-3.846-.735-4.411.717-1.053 2.11-.521 4.716-1.852 1.593-.813 1.608-1.285 3.059-2.051a12.073 12.073 0 0 1 5.268-1.233c2.592-.163 6.751-.424 10.21 1.851 1.944 1.279 3.185.924 4.231 1.66a10.494 10.494 0 0 1 3.2 3.825c1.056 1.929 2.869 5.229 1.473 8.309Zm-8.393-10.207a1.977 1.977 0 0 0-.7-.838c-1.5-1.142-3.122-.017-6.115-.738a7.081 7.081 0 0 1-1.731-.591c-1.306-.67-1.459-1.333-2.1-1.3-.71.042-.8.865-2.1 1.885a6.316 6.316 0 0 1-1.831 1.041c-1.5.528-2.261.088-3.632.8-.562.292-.861.447-1.023.78-.755 1.551 2.156 5.51 5.085 5.561 1.508.026 1.595-1.007 3.668-1.349 2.559-.422 3.248 1.018 5.6.529a6.6 6.6 0 0 0 3.776-2.506c.435-.552 1.604-2.038 1.104-3.273Z"/><g><path class="c" d="M355.991 458.724a27.931 27.931 0 0 1 4.225 1.19c2.677.987 3.1 1.611 4.259 1.891 4.072.984 8.738-4.319 9.708-5.421 3.245-3.687 2.849-5.814 6.775-10.17a30.36 30.36 0 0 1 3.539-3.343 586.45 586.45 0 0 0-3.217-5.115 66.19 66.19 0 0 1-3.515-5.76 30.365 30.365 0 0 1-2.338-6.368l-14.856 5.87a14.462 14.462 0 0 1 1.845 6.676l-.748 6.362a41.736 41.736 0 0 1-3.786 10.739q-.733 1.495-1.891 3.449Z"/><path class="i" d="M347.703 468.31c3.916-5.847 5.881-8.788 7.405-9.344a7.889 7.889 0 0 1 .883-.242c4.635-1.04 7.775.8 9.76 1.04 7.524.9 13.882-19.445 18.3-18.192.311.088.63.445 1.268 1.159 2.524 2.825 1.335 4.753 3.457 9.011.705 1.417 1.169 2.947 1.909 4.346a2.594 2.594 0 0 1 .433 2.084c-.249.619-.925.847-1.251 1.035-6.307 3.637-6.94 2.748-9.776 4.336-.289.159-.958.545-1.473.264-.479-.268-.5-.858-1.051-1.964a8.586 8.586 0 0 0-.787-1.3 19.748 19.748 0 0 0-5.592 4.1 40.037 40.037 0 0 1-3.388 3.723 17.294 17.294 0 0 1-4.621 2.77c-5.437 2.351-16.557 7.1-18.786 8.033-.513.2-.96-.356-1.219-.719-.95-1.327.385-3.862 4.529-10.14Z"/><path class="c" d="M236.703 459.589a27.992 27.992 0 0 1 2.767 3.407c1.62 2.349 1.6 3.1 2.391 4 2.762 3.151 9.631 1.5 11.059 1.162 4.776-1.145 5.678-3.111 11.4-4.41a30.365 30.365 0 0 1 4.818-.693c.077-1.323.194-3.428.317-6.034a65.715 65.715 0 0 1 .446-6.733 30.323 30.323 0 0 1 1.757-6.552l-15.524-3.761a14.468 14.468 0 0 1-2.339 6.52l-4.276 4.769a41.773 41.773 0 0 1-9.282 6.6q-1.462.795-3.534 1.725Z"/><path class="i" d="M224.406 462.649c6.57-2.523 9.871-3.795 11.436-3.372a7.893 7.893 0 0 1 .861.311c4.388 1.821 5.893 5.135 7.379 6.474 5.63 5.072 22.549-7.9 25.435-4.329a3.787 3.787 0 0 1 .369 1.677c.435 3.764-1.647 4.654-2.366 9.357-.24 1.564-.743 3.083-.943 4.652a2.6 2.6 0 0 1-.847 1.953 2.356 2.356 0 0 1-1.619.125c-7.25-.66-7.256-1.752-10.489-2.088-.328-.038-1.1-.107-1.356-.633-.237-.495.085-.99.272-2.211a8.522 8.522 0 0 0 .106-1.516 19.761 19.761 0 0 0-6.932.13 39.974 39.974 0 0 1-4.919 1.095 17.291 17.291 0 0 1-5.372-.4c-5.8-1.21-17.627-3.732-19.983-4.257-.533-.134-.579-.844-.582-1.29-.006-1.63 2.545-2.933 9.55-5.678Z"/><path class="o" d="m256.202 231.186 91-.523c.428 7.526 1.018 18.966 1.481 32.906 2.312 69.555-3.021 65.566 1.481 81.279 5.281 18.433 24.479 65.316 28.958 78.317.5 1.444 1.683 5.044 0 7.9-.671 1.137-1.709 2.008-7.365 4.147-6.46 2.443-9.738 3.65-12.084 2.966-3.6-1.051-5.531-4.562-6.413-6.219-29.242-54.979-36.325-81.034-36.325-81.034-7.282-26.9-12.92-48.7-16.565-62.986-2.382 16.4-21.223 145.913-24.424 156.869-.317 1.082-1.053 3.6-3.231 4.8-2.575 1.414-4.507-.485-13.068-2.429-4.769-1.082-6.312-1.243-7.641-2.866-2.043-2.492-1.4-6.087-1.289-6.91.992-7.045 3.007-89.533 5.485-206.217Z"/><path d="M300.284 287.593a.552.552 0 0 0 .128-.015.615.615 0 0 0 .474-.732l-3.581-16.658a.616.616 0 1 0-1.2.26l3.58 16.658a.618.618 0 0 0 .599.487Z" fill="#66a5af"/><g><path d="M240.779 121.238a5.21 5.21 0 0 1 .507-2.636c9.141-20.412 13.712-30.618 21.955-35.13 1.63-.892 1.29-.505 7.814-3.6a379.488 379.488 0 0 0 13.58-6.768l28.637-.487c6.22 2.251 11.131 3.984 14.086 5.02 13.048 4.575 17.545 5.943 21.2 10.687a21.765 21.765 0 0 1 3.543 7.139c2.259 7.09.88 13.2-1.6 23.578a135.757 135.757 0 0 1-3.926 13.348c2.421 55.3 4.117 95.37 4.476 101.429.068 1.148.288 4.453-1.728 6.17-1.708 1.455-4.211 1.08-4.936.987-9.553-1.22-70.134.564-78.214.9-2.6.107-9.906.479-12.114-3.364a6.184 6.184 0 0 1-.494-4.2c1.05-5.86 1.5-41.461 1.544-98.6a96.339 96.339 0 0 0-10.579-9.383c-1.153-.852-3.524-2.541-3.751-5.09Z" fill="#2b5c86"/><path class="o" d="m256.375 135.005.633-19.217a.687.687 0 0 0-.668-.7.709.709 0 0 0-.7.667l-.633 19.217a.686.686 0 1 0 1.371.038ZM306.372 137.595a.9.9 0 0 0 .1.058.686.686 0 0 0 .914-.322l13.126-27.34a.7.7 0 0 0-.32-.917.686.686 0 0 0-.914.322l-13.126 27.34a.685.685 0 0 0 .22.859ZM336.387 149.33a.621.621 0 0 0 .538-.313l5.613-9.938a.618.618 0 0 0-1.076-.608l-5.613 9.937a.619.619 0 0 0 .236.841.6.6 0 0 0 .302.081Z"/></g><g><path class="r" d="M263.772 26.794c.33-1.435.775-1.737 1.9-4.628 2.237-5.768-.275-12.071 8.171-15.216a16.613 16.613 0 0 1 5.585-.966c4.146.01 7.676-3.9 16.169-3.584 4.431-5.867 10.728.793 14.552 1.385 1.059.163 6.288-1.117 10.1 5 1.875 3.007.719 4.215 2.392 7.24 1.946 3.52 3.847 2.7 5.535 6.36s-.888 8.539 2.677 13.093c1.394 1.78 4.393 2.674 5.647 5.355 1.482 3.169-.331 6.486-.519 7.6-.521 3.1 1.677 3.74 1.786 7.828a7.245 7.245 0 0 1-1.364 5.109c-2.733 3.22-6.115 1.634-8.42 1.8-.867.064-5.489 1.348-7.469-.165-2.155-1.647-2.277-5-4.237-6.405-.983-.7-5.105-1.735-6.7-8.393l-2.435-6.849-37.109-4.045c-4.728-1.959-7.063-7.034-6.261-10.519Z"/><path class="c" d="M269.102 35.554c.029 4 .055 7.629.306 10.932a.586.586 0 0 0 .015.155 41.137 41.137 0 0 0 1.171 7.621c.015.07.044.14.058.211a19.639 19.639 0 0 0 4.853 8.78 16.81 16.81 0 0 0 9.1 5.26l.041 5.5 8.533 25.106 20.154-26.505-.292-41.114c.165-1.449 1.2-12.03-6.3-19.2-8.77-8.377-23.271-6.417-30.517-.115a20.789 20.789 0 0 0-4.744 6.208c-2.05 4.02-2.442 8.402-2.378 17.161Z"/><path class="d" d="M292.769 40.074a1.6 1.6 0 1 0 1.583-1.737 1.664 1.664 0 0 0-1.583 1.737ZM272.455 40.222a1.6 1.6 0 1 0 1.583-1.737 1.664 1.664 0 0 0-1.583 1.737Z"/><path class="e" d="M287.588 51.169a.251.251 0 0 0 .233-.255.248.248 0 0 0-.255-.239c-2.2.076-4.037-.51-4.461-1.424a2.619 2.619 0 0 1-.3-.975 16.233 16.233 0 0 1 0-1.729l.13-8.946a.247.247 0 1 0-.493-.007l-.131 8.943a16.782 16.782 0 0 0 0 1.783 3 3 0 0 0 .329 1.114c.528 1.131 2.514 1.878 4.948 1.735Z"/><path class="f" d="M296.609 50.829a3.542 3.542 0 1 0 3.516-3.568 3.542 3.542 0 0 0-3.516 3.568Z"/><path class="r" d="M300.355 33.026a1.033 1.033 0 0 0 .266-.459 1.2 1.2 0 0 0-.2-.812c-.731-1.189-8.5-2.353-9.585-1.32a.935.935 0 0 0-.3.556 1.142 1.142 0 0 0 .457.832c1.379 1.249 8.518 2.055 9.362 1.203Z"/><path class="e" d="M284.601 68.513c.006.843.016 1.686.022 2.529a13.479 13.479 0 0 0 6.015-.468 14.015 14.015 0 0 0 7.458-5.847 21.393 21.393 0 0 1-8.746 3.567 20.687 20.687 0 0 1-4.749.219ZM285.316 59.534a8.546 8.546 0 0 0 2.577-.456 8.732 8.732 0 0 0 2.6-1.4.248.248 0 0 0-.307-.389 8.208 8.208 0 0 1-2.447 1.326 7.913 7.913 0 0 1-2.629.43 8.038 8.038 0 0 1-2.659-.54 8.184 8.184 0 0 1-2.392-1.425.247.247 0 0 0-.32.376 8.689 8.689 0 0 0 2.534 1.512 8.418 8.418 0 0 0 2.828.571c.06-.004.134-.004.215-.005Z"/><path class="r" d="M279.881 31.785a1.1 1.1 0 0 0 .136-.513 1.187 1.187 0 0 0-.371-.726c-.947-.944-8.326.044-9.075 1.329a.986.986 0 0 0-.148.616 1.074 1.074 0 0 0 .613.676c1.553.825 8.273-.339 8.845-1.382Z"/><path class="f" d="M269.423 46.642a41.137 41.137 0 0 0 1.171 7.621 3.886 3.886 0 0 0-.141-7.769 3.563 3.563 0 0 0-1.03.148Z"/><path class="r" d="M272.925 12.096a32.035 32.035 0 0 0-3.327 10.227 34.763 34.763 0 0 0-.412 6.768c.446-3.544 1.633-5.16 2.933-5.862 1.917-1.035 2.964.685 6.412-.153 2.718-.66 4.006-2.236 7.26-2.079 4.24.2 3.9 2.579 9.17 4.535 3.352 1.246 4.82.92 6.854 2.667 2.867 2.462 2.48 6.248 9.947 11.077 4.809-10.327 2.9-22.129-4.4-29.018-10.94-10.329-29.845-5.687-34.437 1.838Z"/><path class="c" d="M308.223 49.356c7.3-2.851 11.7-7.887 11.144-12.23-.238-1.867-1.5-4.453-3.868-5.19-2.57-.8-5.879.751-7.813 4.055Z"/><path class="e" d="M313.06 37.799a4.917 4.917 0 0 1 3.484-1.685.233.233 0 0 1 .036.464 4.82 4.82 0 0 0-3.168 1.523 4.08 4.08 0 0 0-.869 1.591 2.641 2.641 0 0 1 1.362-.375 2.428 2.428 0 0 1 1.707.809.247.247 0 1 1-.371.327 2 2 0 0 0-1.361-.7 2.347 2.347 0 0 0-1.43.411 4.568 4.568 0 0 0-.068 1.29.162.162 0 0 1-.321.043 4.643 4.643 0 0 1 .999-3.698Z"/></g><g><path d="M281.856 127.838c-.515.668-1.685.555-2.076.524-2.576-.209-15-.427-16.15-.341a.908.908 0 0 1-.579-.125c-.428-.288-.423-.99-.424-1.22-.018-3.829-.026-5.743.082-11.716a.975.975 0 0 1 .237-.693.992.992 0 0 1 .634-.225c.624-.031 2.531-.068 5.112-.078v-.031c.187 0 .369 0 .545-.01v.031c2.387-.047 5.177-.078 5.177-.078 1.018.033 1.846.038 2.408.035.608 0 1.387-.013 2.411 0 1.744.024 1.905.088 2.034.172.766.5.513 1.733.531 3.749.022 2.467.459 6.9.305 9.264a1.316 1.316 0 0 1-.247.742Z" fill="#fff"/><path class="h" d="M270.715 117.214c-.369-.446-.395-1.433-.432-3.391-.05-2.694.219-3.153.432-3.4a1.894 1.894 0 0 1 1.5-.556 1.8 1.8 0 0 1 1.424.556c.414.5.324 1.1.272 3.578-.053 2.524.021 2.822-.272 3.212a1.938 1.938 0 0 1-2.924.001Z"/></g><path class="c" d="M224.257 189.651a1.8 1.8 0 0 0 .631 1.4c1.566 1.279 6.664-2.414 7.4-2.962a21.378 21.378 0 0 1-3.373 3.455c-1.07.878-2.167 1.59-2.029 2.276.11.466.74.685.959.768 2.468.85 8.391-3.373 9.872-4.442a27.984 27.984 0 0 1-3.949 3.318c-1.234.878-2.542 1.621-2.414 2.358.072.413.576.631.768.74 2.139 1.042 8.693-3.373 10.365-4.525-2.3 2.8-3.921 3.785-5.018 4.141-.3.11-1.343.411-1.59 1.179a1.147 1.147 0 0 0 .192 1.1c.535.562 1.837.219 3.208-.3a30.14 30.14 0 0 0 6.335-3.318c2.77-1.837 1.919-1.015 5.813-3.538 13.876-8.912.658-3.811 34.826-9.68a127.7 127.7 0 0 0 21.965-6 27.091 27.091 0 0 0 5.348-2.715c4.607-3.1 8.555-9.379 8.555-9.379a579.194 579.194 0 0 0 8.282-13.711c-6.444-1.042-12.258-5.046-19.634-10.064a5.206 5.206 0 0 1-1.837-2.029 3851.588 3851.588 0 0 0-8.857 18.51c-48.153 17.166-41.819 15.328-47.522 15.63-4.305.219-4.305-.11-6.663.11-4.032.411-4.772 1.453-9.077 1.92a29.808 29.808 0 0 1-4.278.329c-.852-.119-1.719-.4-2.3.082a1.656 1.656 0 0 0-.493 1.481c.246 1.4 2.413 2.056 3.7 2.468a14.927 14.927 0 0 0 5.923.493c-7.158 4.936-12.291 8.536-13.848 9.433-.297.163-1.178.677-1.26 1.472Z"/></g></svg>