<svg xmlns="http://www.w3.org/2000/svg" viewBox="0 0 517.323 468.296"><defs><style>.c{fill:#754435}.d{fill:#f9b995}.e{fill:#e3d6c6}.f{fill:#224767}.j{fill:#302c38}.k{fill:#232323}.l{fill:#ef9673}.m{fill:#f29886}.n{fill:#dfe8f4}.o{fill:#58565e}.u{fill:#c8b5c9}.v{fill:#f4e4dc}.w{fill:#b59cb7}</style></defs><path d="M481.305 447.345c18.557.111 33.96-13.611 34.112-30.788v-.327c.034-31.993-46.317-58.331-37.843-107.588 5.576-32.407 30.5-58.463 37.308-90.605 7.811-36.876-3.236-79.389-31.549-105.847-11.271-10.535-26.51-16.565-42.495-17.538-10.414-.634-22.434-2.25-33.522-7.793-18.551-9.506-32.606-24.443-49.565-38.022-24.592-18.331-53.661-22.405-82.265-25.8a311.627 311.627 0 0 0-179.181 32.59C65.382 71.243 23.196 98.4 25.229 144.57a70.434 70.434 0 0 0 4.3 23.084c8.1 23.469 9.67 30.553 18.3 49.564 5.71 11.542 5.613 25.8-.887 38.7-19.722 38.651-22.35 44.039-39.782 78.758-9.186 18.3-9.313 45.522-1.649 70.271s15.163 41.8 43.881 41.8h348.452c44.244.3 69.124.512 83.461.598Z" fill="#c0dcf2"/><path d="M490.137 441.429c-258.449-2.9-278.738-2.509-319.316-1.727-52.757 1.019-130.382-3.585-130.629 4.317-.045 1.424 2.407 3.773 5.68 6.907 0 0 6.138 5.881 12.471 8.093 45 15.724 286.176 6.7 286.176 6.7 33.933-1.271 50.9-1.9 51.591-1.839 0 0 22.773 2.193 86.985-4.138.914-.09 8-.949 12.449-9.234 1.8-3.356 1.633-5.063 1.535-5.623-.592-3.392-5.303-3.436-6.942-3.456Z" fill="#002f5f"/><path class="c" d="M207.739 15.328c-2-6.3-7.733-11.073-13.736-12.7a18.45 18.45 0 0 0-5.31-.618 22.54 22.54 0 0 0-8.572-2c-.125 0-.312-.01-.553-.013-3.88-.054-9.312 1.531-14.109 4.853a29.8 29.8 0 0 0-8.5 9.161c-.744 1.244-6.4 11.046-3.55 22.481a26.661 26.661 0 0 0 2.717 6.79 25.594 25.594 0 0 0 3.112 4.28 21.488 21.488 0 0 1-1.333 2.892c-2.444 4.4-4.576 4.577-7.572 8.993a18.49 18.49 0 0 0-3.706 9.594 16.051 16.051 0 0 0 1.34 7.209l22.333-8V33.857h32.026a12.407 12.407 0 0 0 3.146-2.567c5.32-6.078 2.459-15.352 2.267-15.962Z"/><path class="d" d="M121.586 438.128a26.811 26.811 0 0 0-4.051 1.142c-2.567.947-2.971 1.544-4.083 1.813-3.905.943-8.379-4.141-9.309-5.2-3.111-3.536-2.732-5.575-6.5-9.752a29.237 29.237 0 0 0-3.393-3.2 476.09 476.09 0 0 1 3.085-4.9 63.146 63.146 0 0 0 3.371-5.523 29.11 29.11 0 0 0 2.242-6.106l14.245 5.628a13.87 13.87 0 0 0-1.769 6.4l.717 6.1a40.025 40.025 0 0 0 3.63 10.3q.704 1.424 1.815 3.298Z"/><path class="e" d="M129.532 447.319c-3.755-5.607-5.639-8.427-7.1-8.96a7.584 7.584 0 0 0-.846-.232c-4.445-1-7.455.769-9.36 1-7.214.865-13.311-18.644-17.544-17.444-.3.085-.6.427-1.215 1.112-2.42 2.71-1.281 4.558-3.315 8.641-.676 1.358-1.121 2.826-1.831 4.167a2.486 2.486 0 0 0-.416 2c.239.594.887.813 1.2.993 6.046 3.487 6.655 2.635 9.374 4.158.278.152.919.523 1.413.253.459-.257.479-.823 1.008-1.882a8.185 8.185 0 0 1 .755-1.248 18.946 18.946 0 0 1 5.361 3.932 38.411 38.411 0 0 0 3.249 3.57 16.59 16.59 0 0 0 4.431 2.656c5.214 2.255 15.877 6.813 18.014 7.7.491.189.92-.341 1.168-.69.908-1.276-.372-3.705-4.346-9.726Z"/><path class="d" d="M248.295 439.128a26.745 26.745 0 0 0-2.654 3.267c-1.553 2.253-1.539 2.974-2.293 3.834-2.648 3.021-9.235 1.442-10.6 1.115-4.58-1.1-5.445-2.984-10.928-4.229a29.11 29.11 0 0 0-4.62-.665 459.32 459.32 0 0 1-.3-5.786 63.2 63.2 0 0 0-.428-6.457 29.1 29.1 0 0 0-1.685-6.282l14.885-3.606a13.869 13.869 0 0 0 2.242 6.252l4.1 4.573a40.05 40.05 0 0 0 8.9 6.326q1.391.766 3.381 1.658Z"/><path class="e" d="M260.086 442.062c-6.3-2.419-9.465-3.639-10.966-3.233a7.4 7.4 0 0 0-.825.3c-4.208 1.746-5.651 4.923-7.076 6.207-5.4 4.863-21.622-7.571-24.389-4.151a3.628 3.628 0 0 0-.353 1.609c-.417 3.609 1.578 4.463 2.268 8.972.23 1.5.712 2.956.9 4.461a2.488 2.488 0 0 0 .813 1.873 2.262 2.262 0 0 0 1.552.12c6.952-.633 6.958-1.68 10.057-2 .315-.036 1.052-.1 1.3-.607.228-.474-.081-.949-.261-2.12a8.191 8.191 0 0 1-.1-1.454 18.935 18.935 0 0 1 6.647.125 38.41 38.41 0 0 0 4.713 1.046 16.59 16.59 0 0 0 5.152-.382c5.56-1.16 16.9-3.578 19.161-4.082.51-.129.555-.809.558-1.238.012-1.565-2.435-2.817-9.151-5.446Z"/><path class="f" d="m214.733 219.762-84.719-.315c-.41 7.216-.976 18.186-1.42 31.553-2.217 66.694 2.9 62.87-1.42 77.936-5.063 17.675-23.472 62.63-27.766 75.1-.477 1.384-1.614 4.836 0 7.572.643 1.09 1.639 1.925 7.062 3.976 6.194 2.342 9.338 3.5 11.586 2.844 3.454-1.008 5.3-4.374 6.149-5.964 28.039-52.718 34.831-77.7 34.831-77.7a4278.506 4278.506 0 0 0 15.884-60.4c17.266 79.75 30.18 138.121 32.4 146.707.359 1.392 1.119 4.111 3.47 5.68 2.7 1.8 7.055.765 15.666-1.374 4.511-1.121 5.756-1.705 6.677-2.927 2.3-3.051.8-7.7.533-8.635-2.181-7.771-9.217-82.322-18.933-194.053Z"/><path d="M175.139 274.2a.569.569 0 0 1-.124-.013.593.593 0 0 1-.455-.7l3.432-15.974a.592.592 0 1 1 1.158.249l-3.432 15.972a.592.592 0 0 1-.579.466Z" fill="#183146"/><path class="d" d="M228.723 132.551q1.916 8.9 3.833 17.794l53.955 21.456-27.044 9.006-44.244-11.579-1.849-36.453Z"/><g><path d="M231.608 132.636c-3.628-31.127-5.4-46.7-17.332-53.341-1.909-1.063-1.938-.675-10.268-4.361a361.071 361.071 0 0 1-15.124-7.111c-5.27.16-10.8.175-16.569 0q-4.939-.153-9.62-.47a173.722 173.722 0 0 1-13.506 4.813l-10.856 3.35a23.222 23.222 0 0 0-4.943 1.628l-.592.2-.005.121c-10.887 5.522-13.588 22.161-18.863 54.945-.157.868-.42 2.84.684 4.1a3.143 3.143 0 0 0 1.525.921 6.827 6.827 0 0 0 1.446.184c2.054.055 6.5.239 12.592.488-2.062 47.8-3.446 79.61-3.711 83.818-.063 1.008-.3 4.248 1.657 5.916 1.637 1.394 4.038 1.036 4.733.947 9.16-1.17 67.249.541 75 .858 2.49.1 9.5.46 11.615-3.225a5.918 5.918 0 0 0 .474-4.023c-1.074-5.78-2-38.3-2.83-85.031 1.095-.074 2.912-.187 5.171-.286 5.566-.244 7.726-.129 8.8-1.578a3.973 3.973 0 0 0 .522-2.863Z" fill="#2b5c86"/><path class="f" d="M216.949 136.945a.661.661 0 0 1-.666-.64l-.607-23.685a.658.658 0 0 1 .64-.676.679.679 0 0 1 .674.64l.608 23.685a.663.663 0 0 1-.649.676ZM141.932 138.252a.754.754 0 0 1-.192.02.658.658 0 0 1-.629-.687l1.221-27.49a.658.658 0 0 1 1.315.059l-1.221 27.49a.659.659 0 0 1-.494.608Z"/></g><g><path d="M190.186 125.552c.493.64 1.615.532 1.991.5 2.47-.2 14.38-.41 15.485-.327a.862.862 0 0 0 .555-.12c.411-.276.406-.95.407-1.17.017-3.671.026-5.507-.079-11.233a.934.934 0 0 0-.228-.665.951.951 0 0 0-.608-.215c-.6-.03-2.427-.065-4.9-.075v-.03c-.18-.005-.355-.005-.524-.01v.031c-2.289-.045-4.965-.075-4.965-.075-.976.032-1.77.036-2.309.034-.583 0-1.329-.012-2.311 0-1.672.023-1.827.085-1.951.165-.735.475-.491 1.662-.508 3.6-.021 2.365-.44 6.612-.293 8.883a1.265 1.265 0 0 0 .238.707Z" fill="#fff"/><path class="j" d="M200.869 115.368c.354-.427.378-1.375.413-3.252.049-2.582-.209-3.024-.413-3.256a1.816 1.816 0 0 0-1.435-.532 1.729 1.729 0 0 0-1.366.532c-.4.48-.311 1.056-.261 3.432.051 2.42-.02 2.706.261 3.079a1.859 1.859 0 0 0 2.801-.003Z"/></g><g><path class="d" d="M162.692 26.173V67.35l20.5 25.767 5.687-25.293c0-1.315-.027-6.363-.027-6.363a15.875 15.875 0 0 0 5.6-2.419 20.152 20.152 0 0 0 3.076-2.682 18.981 18.981 0 0 0 4.6-8.466.817.817 0 0 1 .052-.212 40.334 40.334 0 0 0 1.076-7.311v-.128c.21-3.181.21-6.652.21-10.491 0-8.414-.407-12.589-2.393-16.434a19.021 19.021 0 0 0-4.6-5.916c-5.863-4.97-16.618-6.942-24.927-1.315a21.182 21.182 0 0 0-8.854 20.086Z"/><path class="k" d="M180.825 34.234a1.535 1.535 0 1 1-1.53-1.654 1.6 1.6 0 0 1 1.53 1.654ZM200.303 34.234a1.535 1.535 0 1 1-1.531-1.654 1.6 1.6 0 0 1 1.531 1.654Z"/><path class="l" d="M185.866 44.836a.24.24 0 0 1-.225-.243.238.238 0 0 1 .243-.231c2.113.057 3.867-.517 4.267-1.4a2.526 2.526 0 0 0 .279-.937 15.762 15.762 0 0 0-.015-1.658l-.187-8.578a.237.237 0 1 1 .473-.01l.188 8.574a15.915 15.915 0 0 1 .014 1.71 2.876 2.876 0 0 1-.308 1.07c-.492 1.089-2.393 1.824-4.729 1.703Z"/><path class="c" d="M174.736 27.711a.993.993 0 0 1-.262-.437 1.141 1.141 0 0 1 .177-.781c.683-1.15 8.116-2.38 9.17-1.405a.9.9 0 0 1 .3.529 1.1 1.1 0 0 1-.425.8c-1.304 1.225-8.138 2.099-8.96 1.294Z"/><path class="l" d="M175.891 57.91a13.448 13.448 0 0 0 7.178 5.548 12.893 12.893 0 0 0 5.785.421V61.46a21.337 21.337 0 0 1-4.549-.185 20.476 20.476 0 0 1-8.414-3.365Z"/><path class="c" d="M192.963 26.254a.991.991 0 0 1-.1-.5 1.145 1.145 0 0 1 .429-.677c1.03-.854 8.445.484 9.11 1.756a.894.894 0 0 1 .1.6c-.1.366-.513.547-.67.615-1.636.712-8.366-.76-8.869-1.794Z"/><path class="m" d="M178.566 44.574a3.4 3.4 0 1 1-3.4-3.4 3.4 3.4 0 0 1 3.4 3.4ZM203.261 40.368a39.346 39.346 0 0 1-1.076 7.311 3.724 3.724 0 0 1 .075-7.447 3.51 3.51 0 0 1 1.001.136Z"/><path class="c" d="M162.523 28.686a21.537 21.537 0 0 1-.053-11.255 21.807 21.807 0 0 1 9.347-12.542c8.457-5.046 20.455-3.258 27.287 4.264 6.219 6.848 5.589 15.619 5.422 17.4a9.49 9.49 0 0 0-1.893-2.13 9.733 9.733 0 0 0-3.313-1.774c-1.682-.553-4.529-2.516-9.663-8.549a26.2 26.2 0 0 1-4.181 3.934c-6.587 4.947-10.38 2.823-14.791 7.336-1.228 1.257-2.6 3.125-5.088 3.55a6.649 6.649 0 0 1-3.074-.234Z"/><path class="d" d="M167.426 43.243c-7.024-2.683-11.271-7.481-10.771-11.649.215-1.792 1.406-4.28 3.673-5 2.459-.785 5.642.68 7.519 3.834Z"/><path class="l" d="M159.355 30.608a4.714 4.714 0 0 1 3.352 1.592 4.452 4.452 0 0 1 .984 3.543.155.155 0 0 1-.308-.039 4.4 4.4 0 0 0-.074-1.236 2.252 2.252 0 0 0-1.375-.384 1.97 1.97 0 0 0-1.3.681.239.239 0 0 1-.338.017.236.236 0 0 1-.013-.335 2.345 2.345 0 0 1 1.628-.784 2.533 2.533 0 0 1 1.309.349 3.928 3.928 0 0 0-.845-1.519 4.6 4.6 0 0 0-3.037-1.437.233.233 0 0 1-.216-.237.222.222 0 0 1 .233-.211ZM188.107 52.605a8.188 8.188 0 0 1-2.474-.419 8.385 8.385 0 0 1-2.5-1.329.237.237 0 1 1 .291-.375 7.864 7.864 0 0 0 2.355 1.254 7.549 7.549 0 0 0 2.524.394 7.682 7.682 0 0 0 2.545-.536 7.854 7.854 0 0 0 2.284-1.383.237.237 0 0 1 .309.359 8.31 8.31 0 0 1-2.419 1.466 8.054 8.054 0 0 1-2.707.568q-.091.002-.208.001Z"/></g><g><path class="n" d="M423.173 443.786a3.285 3.285 0 0 1-3.284-3.22c-.084-4.026-.691-68.435-.66-86.647.088-52.681.118-70.427-10.949-77.777-3.495-2.321-24.773-3.175-56.979-4.465a958.398 958.398 0 0 0-24.551-.67 3.288 3.288 0 0 1-3.239-3.335 3.24 3.24 0 0 1 3.335-3.239c8.185.119 16.493.345 24.694.674 42.054 1.686 55.577 2.371 60.376 5.558 14.011 9.306 13.983 26.453 13.887 83.266-.031 18.188.576 82.483.657 86.5a3.285 3.285 0 0 1-3.219 3.353Z"/><g transform="translate(312.033 311.2)"><ellipse class="o" cx="14.529" cy="15.797" rx="14.529" ry="15.797" transform="translate(96.051 115.078)"/><path class="o" d="M67.832 146.927C30.432 146.927 0 113.971 0 73.463S30.43 0 67.832 0s67.833 32.955 67.833 73.463-30.429 73.464-67.833 73.464Zm0-140.354c-33.778 0-61.258 30.007-61.258 66.89s27.481 66.89 61.258 66.89 61.26-30.007 61.26-66.89-27.481-66.889-61.26-66.889Z"/><path d="M67.832 140.99c-34.333 0-62.265-30.292-62.265-67.526S33.499 5.939 67.832 5.939s62.266 30.292 62.266 67.525-27.932 67.526-62.266 67.526Zm0-131.107c-32.158 0-58.321 28.522-58.321 63.581s26.163 63.582 58.321 63.582 58.321-28.523 58.321-63.582S99.991 9.882 67.832 9.882Z" fill="#e6e9f0"/><path d="M74.479 73.464c0 3.991-2.976 7.226-6.647 7.226s-6.647-3.235-6.647-7.226 2.976-7.227 6.647-7.227 6.647 3.236 6.647 7.227Z" fill="#343549"/></g><path class="n" d="M379.864 387.951h-99.975a3.287 3.287 0 1 1 0-6.574h99.975a3.287 3.287 0 1 1 0 6.574ZM457.059 446.415H346.921a3.287 3.287 0 1 1 0-6.574h110.138a3.287 3.287 0 0 1 0 6.574Z"/><path class="j" d="M430.396 327.673c-2.175-4.2-8.043-5.232-10.787-5.659-10.42-1.619-37.459-4.161-73.573-6.6-1.171-7.344-3-20.262-3.988-36.487-2.763-45.534 3.683-75.419-8.344-80.935-2-.917-2.54-.258-10.115.475-17.789 1.722-47.144 1.219-62-.473-1.7-.193-6.164-.739-8.835 1.893s-2.179 7.132-2.051 8.519c1.405 15.183.947 120.088.883 124.007a10.641 10.641 0 0 0 1.77 6.536 10.189 10.189 0 0 0 3.922 3.06 12.731 12.731 0 0 0 5.264 1.191c25.361.475 50.673 3.552 76.035 3.092 11.623-.211 17.434-.316 19.248-.316 0 0 54.045 0 70.047-8.2a6.419 6.419 0 0 0 2.524-2.209c1.577-2.463 1.044-5.879 0-7.894Z"/><path class="n" d="M254.329 229.36a3.287 3.287 0 0 1-3.279-3.1 383.443 383.443 0 0 0-1.947-22.554c-2.013-17.339-3.514-19.913-4.878-21.062-1.341-1.13-2.693-1.267-11.49-1.7a765.46 765.46 0 0 1-10.546-.571 430.448 430.448 0 0 0-17.068-.713 3.285 3.285 0 0 1-3.215-3.356 3.236 3.236 0 0 1 3.356-3.215c5.73.123 11.56.366 17.331.723 4.272.264 7.691.432 10.464.567 9.431.463 12.278.6 15.4 3.238 3.307 2.786 5.034 6.921 7.172 25.331a389.627 389.627 0 0 1 1.98 22.942 3.287 3.287 0 0 1-3.1 3.466 5.064 5.064 0 0 1-.18.004Z"/><path class="j" d="m229.732 181.445-24.721-1.132a3.946 3.946 0 0 1 .365-7.884l24.535 1.131a12.257 12.257 0 0 1-.178 7.884Z"/><path class="d" d="M435.857 427.84a24.425 24.425 0 0 0-2.958 2.452c-1.792 1.74-1.909 2.388-2.737 3.025-2.91 2.233-8.526-.354-9.693-.892-3.9-1.8-4.344-3.642-9.031-5.734a26.608 26.608 0 0 0-4.018-1.418c.16-1.15.419-2.977.759-5.235a57.754 57.754 0 0 0 .768-5.857 26.565 26.565 0 0 0-.389-5.925l13.971-.576a12.657 12.657 0 0 0 .893 6l2.856 4.825a36.545 36.545 0 0 0 6.842 7.25q1.117.932 2.737 2.085Z"/><path d="M445.89 432.568c-5.209-3.288-7.826-4.945-9.242-4.848a6.843 6.843 0 0 0-.792.12c-4.079.814-5.937 3.4-7.442 4.3-5.7 3.392-18.011-10.632-21.1-8.063-.218.18-.346.579-.6 1.377-1.017 3.157.618 4.277.432 8.438-.061 1.384.111 2.774.015 4.155a2.271 2.271 0 0 0 .393 1.822 2.065 2.065 0 0 0 1.369.384c6.337.672 6.529-.264 9.362 0 .288.024.96.1 1.272-.312.288-.384.1-.864.145-1.944a7.455 7.455 0 0 1 .168-1.321 17.293 17.293 0 0 1 5.929 1.3 35.1 35.1 0 0 0 4.033 1.776 15.143 15.143 0 0 0 4.681.576c5.185-.048 15.771-.192 17.884-.24.479-.024.641-.625.72-1.008.286-1.404-1.682-2.959-7.227-6.512Z" fill="#c1997e"/><path class="d" d="M396.416 427.84a24.439 24.439 0 0 0-2.958 2.452c-1.792 1.74-1.909 2.388-2.737 3.025-2.91 2.233-8.526-.354-9.693-.892-3.9-1.8-4.344-3.642-9.031-5.734a26.6 26.6 0 0 0-4.018-1.418c.16-1.15.42-2.977.759-5.235a57.81 57.81 0 0 0 .768-5.857 26.566 26.566 0 0 0-.39-5.925l13.971-.576a12.656 12.656 0 0 0 .893 6l2.857 4.825a36.513 36.513 0 0 0 6.841 7.25q1.118.932 2.738 2.085Z"/><path d="M406.449 432.568c-5.209-3.288-7.826-4.945-9.242-4.848a6.862 6.862 0 0 0-.792.12c-4.078.814-5.937 3.4-7.442 4.3-5.7 3.392-18.011-10.632-21.1-8.063-.218.18-.346.579-.6 1.377-1.017 3.157.618 4.277.432 8.438-.062 1.384.111 2.774.015 4.155a2.272 2.272 0 0 0 .393 1.822 2.065 2.065 0 0 0 1.369.384c6.337.672 6.529-.264 9.362 0 .288.024.96.1 1.272-.312.288-.384.1-.864.144-1.944a7.459 7.459 0 0 1 .168-1.321 17.293 17.293 0 0 1 5.929 1.3 35.1 35.1 0 0 0 4.033 1.776 15.143 15.143 0 0 0 4.681.576c5.185-.048 15.771-.192 17.883-.24.481-.024.641-.625.72-1.008.288-1.404-1.68-2.959-7.225-6.512Z" fill="#d3ab8d"/><path class="e" d="M417.934 329.093a34.089 34.089 0 0 0-2.888-10.21 34.676 34.676 0 0 0-2.02-3.565c-7.332-11.127-40.055-21.486-40.055-21.486a1535.957 1535.957 0 0 0-27.846-8.52l-78.034 1.759a49.062 49.062 0 0 0 .023 19.685 31.181 31.181 0 0 0 3.692 10.537c4.41 7.132 11.824 10.575 19.755 13.12 23.045 7.4 54.19 9.18 61.9 9.566 6.077 38.834 10.634 67.009 11.5 72.286.176 1.074.622 3.58 2.582 4.978 1.916 1.366 3.794.615 8.006.356 8.213-.506 11.716 1.7 13.725-.632a5.226 5.226 0 0 0 .947-3.786c-.369-6.183-.2-31.475.158-66.576 8.046 34.61 13.763 59.542 14.62 65.121.13.846.5 3.566 2.576 5.084 1.632 1.2 3.364.947 6.626.789 9.437-.459 11.622.809 13.41-1.1 1.739-1.862 1.334-4.846 1.174-6.086-.989-7.632-9.633-79.472-9.851-81.32Z"/><path d="M389.683 346.409a.6.6 0 0 1-.582-.612 132.817 132.817 0 0 0-.941-21.518c-.55-4.309-1.123-6.783-2.889-9.193-2.4-3.27-5.722-4.606-10.918-6.417a296.627 296.627 0 0 0-20.468-6.3.592.592 0 0 1 .307-1.143 296.991 296.991 0 0 1 20.551 6.323c5.411 1.886 8.884 3.286 11.483 6.835 1.918 2.619 2.531 5.228 3.107 9.741a133.994 133.994 0 0 1 .951 21.709.6.6 0 0 1-.601.575Z" fill="#cebeab"/><path class="d" d="M423.022 276.292c-.724-.874-2.576-3.455-5.2-7.2l-.121-.225a32.274 32.274 0 0 0-3.254-5.384c-1.733-1.643-3.538-2.255-7.08-3.412a55.315 55.315 0 0 0-8.066-1.972l-4.776-2.17-2.865 11.034 4.663.676a12.575 12.575 0 0 0 2.722 3.871c1.829 1.745 2.55 1.291 3.9 2.958 1.048 1.291 1.561 2.728 2.905 3.327a1.668 1.668 0 0 0 1.315.124 1.341 1.341 0 0 0 .71-.769 1.476 1.476 0 0 0-.118-1.026c-.983-2.232-2.4-3.876-2.091-5.285a2.361 2.361 0 0 1 1.42-1.578 2.8 2.8 0 0 1 2.051.158 16.7 16.7 0 0 1 4.891 3.057 26.824 26.824 0 0 1 2.678 2.68c.679.791 1.18 1.495 1.436 1.853.582.813.993 1.47 1.377 2.088a51.18 51.18 0 0 1 1.137 1.915 1.575 1.575 0 0 0 .947-.632 1.824 1.824 0 0 0 .057-1.456c-.125-.426-.245-.806-.372-1.209a2.367 2.367 0 0 0 1.644.44.954.954 0 0 0 .674-.414c.23-.489-.404-1.232-.584-1.449Z"/><path class="u" d="M261.669 291.563c.176 1.588.676 6.089 3.526 7.42 2.357 1.1 5.216-.482 5.961-.864 13.3-6.831 71.624-.515 75.151-12.568.137-.467-.456-2.992-1.656-8.046a207.31 207.31 0 0 0-3.184-11.841c7.346.672 13.292 1.3 17.3 1.744 10.189 1.125 20.55.14 30.717 1.447a3.217 3.217 0 0 0 1.679-.171c1.691-.688 1.768-2.654 3.338-8.217.956-3.387 1.528-4.788.71-6.034a3.57 3.57 0 0 0-1.961-1.344c-3.066-.986-17.537-4.492-37.323-9.029-3.32-25.037-7.183-44.174-10.1-53.64-1.074-3.488-2.795-8.192-7.1-11.675-1.807-1.462-3.627-2.351-9.563-4.4a243.39 243.39 0 0 0-15.91-4.872l-26.188.805c-3.8.762-6.852 1.54-8.932 2.109-2.694.737-4.036 1.2-7.362 2.122a197.749 197.749 0 0 1-7.38 1.9c-.272 9.277-3.067 103.028-1.723 115.154Z"/><g><path class="v" d="M333.61 120.696c-.221-2.952 2.1-7.707-4.577-11.109-2.93-1.492-3.722-.882-5.294-2.114s-1.562-4-6.678-5.973c-5.937-2.293-6.714.727-9.72.3-1.867-.268-5.743-4.321-12.03-.266-1.734 1.119-2.047 1.9-3.172 2.854-2.856 2.423-5.04.951-8.5 2.867a12 12 0 0 0-5.245 6.474c-1.218 3.665.773 4.614-.355 7.943-1.463 4.314-5.234 3.978-6.04 7.874-.632 3.051 1.5 4.15.478 7.677-.652 2.258-1.654 2.254-2.13 4.475a9.035 9.035 0 0 0 1.3 6.825c1.792 2.45 3.966 2.124 5.234 4.854.524 1.128.4 4.147 5.533 5.1 5.25.977 7.1-3.107 16.894-3.513 6.442-.268 7.79 1.83 14.571 2.276 10.588.7 22.679-2.1 21.308-12.636-.535-4.106-3.219-5.852-2.249-8.615.407-1.159 3.271-3.363 3.225-7.813-.036-3.457-2.278-3.801-2.553-7.48Z"/><path class="d" d="M287.074 129.103v41.177c8.592 18.209 17.348 30.1 22.159 28.657 6.106-1.826 4.325-24.651 4.03-28.183 0-.652-.027-6.363-.027-6.363a15.657 15.657 0 0 0 5.6-2.419 19.647 19.647 0 0 0 3.076-2.682 18.98 18.98 0 0 0 4.6-8.467.806.806 0 0 1 .052-.212 40.379 40.379 0 0 0 1.076-7.311v-.128c.21-3.182.21-6.652.21-10.492 0-8.414-.394-12.6-2.393-16.434a18.925 18.925 0 0 0-4.6-5.916c-5.864-4.97-16.618-6.942-24.927-1.315a21.183 21.183 0 0 0-8.856 20.088Z"/><path class="k" d="M305.208 137.165a1.535 1.535 0 1 1-1.531-1.654 1.6 1.6 0 0 1 1.531 1.654ZM324.686 137.165a1.535 1.535 0 1 1-1.531-1.654 1.6 1.6 0 0 1 1.531 1.654Z"/><path class="l" d="M310.252 147.767a.241.241 0 0 1-.225-.243.237.237 0 0 1 .243-.231c2.113.057 3.867-.518 4.267-1.4a2.538 2.538 0 0 0 .279-.937 15.8 15.8 0 0 0-.016-1.658l-.187-8.577a.237.237 0 1 1 .473-.01l.188 8.573a15.915 15.915 0 0 1 .014 1.71 2.88 2.88 0 0 1-.308 1.071c-.495 1.092-2.396 1.822-4.728 1.702Z"/><path class="v" d="M299.118 130.642a.989.989 0 0 1-.262-.436 1.141 1.141 0 0 1 .177-.781c.683-1.151 8.116-2.38 9.17-1.406a.9.9 0 0 1 .3.529 1.093 1.093 0 0 1-.425.8c-1.304 1.225-8.135 2.102-8.96 1.294Z"/><path class="l" d="M300.274 160.84a13.444 13.444 0 0 0 7.178 5.548 12.9 12.9 0 0 0 5.785.421v-2.419a21.368 21.368 0 0 1-4.549-.184 20.474 20.474 0 0 1-8.414-3.366ZM312.49 155.772a8.2 8.2 0 0 1-2.475-.419 8.378 8.378 0 0 1-2.5-1.329.238.238 0 1 1 .292-.375 7.87 7.87 0 0 0 2.355 1.254 7.566 7.566 0 0 0 2.524.394 7.706 7.706 0 0 0 2.545-.536 7.852 7.852 0 0 0 2.283-1.383.237.237 0 0 1 .309.358 8.3 8.3 0 0 1-2.419 1.467 8.062 8.062 0 0 1-2.707.568 6.739 6.739 0 0 1-.207.001Z"/><path class="v" d="M317.345 129.184a.988.988 0 0 1-.1-.5 1.146 1.146 0 0 1 .429-.677c1.03-.854 8.445.484 9.11 1.756a.9.9 0 0 1 .1.6c-.1.365-.513.546-.671.615-1.635.712-8.368-.76-8.868-1.794Z"/><path class="m" d="M302.949 147.505a3.4 3.4 0 1 1-3.4-3.4 3.4 3.4 0 0 1 3.4 3.4ZM327.644 143.298a39.4 39.4 0 0 1-1.076 7.311 3.724 3.724 0 0 1 .075-7.447 3.511 3.511 0 0 1 1.001.136Z"/><path class="v" d="M291.248 111.062c7.155-7.994 20.165-9.263 28.871-2.682 6.827 5.161 9.881 14.3 7.733 23.113a24.784 24.784 0 0 0-.145-3.4c-.355-3.179-.615-5.569-2.225-7.128-1.668-1.615-2.615-.29-5.68-2.248-1.874-1.2-2.505-2.323-4.5-2.722a7.085 7.085 0 0 0-2.6 0c-3.032.557-3.234 2.622-5.8 3.076-1.875.333-2.123-.71-4.733-.355a7.51 7.51 0 0 0-3.549 1.3 6.892 6.892 0 0 0-2.327 3.037c-.946 2.448.381 3.409-.395 5.956a6.376 6.376 0 0 1-2.839 3.786c-2.615 1.422-5.532-.028-5.884-.21-.182-.579-3.838-12.684 4.073-21.523Z"/><path class="d" d="M291.807 146.173c-7.023-2.682-11.27-7.481-10.77-11.648.215-1.792 1.406-4.28 3.672-5 2.459-.785 5.642.679 7.52 3.833Z"/><path class="l" d="M283.734 133.534a4.713 4.713 0 0 1 3.352 1.592 4.45 4.45 0 0 1 .984 3.542.156.156 0 0 1-.309-.038 4.4 4.4 0 0 0-.074-1.237 2.253 2.253 0 0 0-1.375-.384 1.969 1.969 0 0 0-1.3.681.237.237 0 1 1-.351-.319 2.344 2.344 0 0 1 1.628-.784 2.539 2.539 0 0 1 1.309.349 3.919 3.919 0 0 0-.844-1.519 4.6 4.6 0 0 0-3.037-1.438.234.234 0 0 1-.217-.237.223.223 0 0 1 .234-.208Z"/></g><path class="w" d="M340.718 263.782a.592.592 0 0 1-.588-.534 83.758 83.758 0 0 1-.406-8.941 89.927 89.927 0 0 1 .946-11.975 49.2 49.2 0 0 1 .928-4.939 20.163 20.163 0 0 0 .571-3.483 43.086 43.086 0 0 0-.657-11.794 50.581 50.581 0 0 0-2.928-10.177.593.593 0 0 1 1.1-.444 51.787 51.787 0 0 1 3 10.416 44.194 44.194 0 0 1 .67 12.1 21.272 21.272 0 0 1-.6 3.654 48.2 48.2 0 0 0-.909 4.835 88.633 88.633 0 0 0-.933 11.816 82.328 82.328 0 0 0 .4 8.815.593.593 0 0 1-.531.647Z"/><path class="n" d="M346.921 443.786a3.285 3.285 0 0 1-3.284-3.22c-.084-4.026-.691-68.435-.66-86.647.088-52.681.118-70.427-10.95-77.777-3.495-2.321-24.773-3.175-56.979-4.465-10.812-.434-22.7-.607-27.18-.67a3.288 3.288 0 0 1-3.239-3.335 3.228 3.228 0 0 1 3.334-3.239c4.5.066 16.452.239 27.324.674 42.054 1.686 55.577 2.371 60.376 5.558 14.011 9.306 13.983 26.453 13.887 83.266-.031 18.188.576 82.483.657 86.5a3.285 3.285 0 0 1-3.219 3.353Z"/><g><path class="d" d="M319.669 255.75c1.455.387 2.655.67 3.488.859 2.448.553 3.9.811 6.383 1.54.32.095.649.2 1.024.33a55.546 55.546 0 0 1 8.943 4.114 33.217 33.217 0 0 1 4.434 2.662c6.683 6.02 4.163 18.478 4.657 20.493a1.185 1.185 0 0 1-.079.907.882.882 0 0 1-.5.352 1.181 1.181 0 0 1-.955-.273 1.974 1.974 0 0 1-.749-1.183 1.3 1.3 0 0 1-.822 1.395 1.249 1.249 0 0 1-1.058-.4 1.9 1.9 0 0 1-.481-1.2c-.084-1.065-.576-3.629-1.333-7.262.052 2.22.092 4.075.137 5.618.013.432.039 1.332-.379 1.517-.345.153-.833-.253-.968-.363-1.365-1.114-1.008-3.072-1.491-5.744a16.453 16.453 0 0 0-1.3-4.042 59.745 59.745 0 0 1-12.138-5.653l-10.24.174q1.711-6.923 3.427-13.841Z"/><path class="u" d="M263.4 176.414a17.528 17.528 0 0 0-5.125 2.172c-6.759 4.272-8.052 11.908-10.933 27.246 0 0-3.643 19.4-5.061 48.345a11.388 11.388 0 0 0 1.48 6.924c3.039 4.736 9.683 5.082 16.644 5.754 22.356 2.157 35.165 1.84 42.149 2.793 3.18.434 6.44.188 9.6.757 1.83.33 3.076.668 4.256-.032 1.378-.817 1.314-2.246 2.37-6.516 1.414-5.712 2.57-7.356 1.5-9.072a4.807 4.807 0 0 0-3-1.893c-4.64-1.174-23-5.555-48.118-11.359l6.607-51.331a13.912 13.912 0 0 0-4.5-10.649 13.279 13.279 0 0 0-7.869-3.139Z"/><path class="w" d="M318.068 255.261a.578.578 0 0 1-.183-.03 477.293 477.293 0 0 0-17.411-5.319 478.998 478.998 0 0 0-31.436-7.8.594.594 0 0 1-.464-.66l4.024-29.344a.592.592 0 1 1 1.174.161l-3.949 28.8a481.955 481.955 0 0 1 30.975 7.7 479.047 479.047 0 0 1 17.454 5.332.592.592 0 0 1-.183 1.155Z"/></g><g><path class="j" d="M277.317 458.127c-37.4 0-67.832-32.956-67.832-73.464s30.43-73.463 67.832-73.463 67.833 32.955 67.833 73.463-30.429 73.464-67.833 73.464Zm0-140.354c-33.778 0-61.258 30.007-61.258 66.89s27.481 66.89 61.258 66.89 61.26-30.007 61.26-66.89-27.481-66.889-61.26-66.889Z"/><path class="n" d="M277.317 452.19c-34.333 0-62.265-30.292-62.265-67.526s27.932-67.525 62.265-67.525 62.266 30.292 62.266 67.525-27.932 67.526-62.266 67.526Zm0-131.107c-32.158 0-58.321 28.522-58.321 63.581s26.163 63.582 58.321 63.582 58.322-28.523 58.322-63.582-26.163-63.582-58.322-63.582Z"/><path class="j" d="M283.964 384.664c0 3.991-2.976 7.226-6.647 7.226s-6.647-3.235-6.647-7.226 2.976-7.227 6.647-7.227 6.647 3.236 6.647 7.227Z"/><g transform="translate(332.392 426.278)"><ellipse class="j" cx="14.529" cy="15.797" rx="14.529" ry="15.797"/><path class="n" d="M19.358 15.797a4.846 4.846 0 1 1-4.829-5.251 5.053 5.053 0 0 1 4.829 5.251Z"/></g></g></g><path class="d" d="M202.696 176.082c.027.289.237 1.341 3.208 2.734a21.758 21.758 0 0 0 8.125 1.92 2.434 2.434 0 0 1-2.656 3.234 21.468 21.468 0 0 1-1.657 2.077 15.27 15.27 0 0 1-4.18 3.6c-2 .921-4.075.027-8.809-2.13a724.588 724.588 0 0 1-8.782-4.023c-4.128.316-50.327 3.707-64.29-1.131a13.78 13.78 0 0 1-6.81-4.522c-2.813-3.655-2.656-8.125-2.524-10.57.369-7.7.92-17.775 1.814-29.844a7.677 7.677 0 0 0 1.446.184c2.945.079 10.728.42 21.377.841-.421 8.256-.894 16.486-1.315 24.743q26.7 3.746 53.4 7.467v.026c2.393-1 8.756-3.365 13.568-2.366 1.578.342 3.05 1.657 5.916 1.814 1.42.052 2.945-.132 3.654.789a2.375 2.375 0 0 1 .237 1.92c-3.024-.132-6.024-.287-9.048-.419-1.756 1.003-2.858 2.394-2.674 3.656Z"/></svg>