<svg xmlns="http://www.w3.org/2000/svg" viewBox="0 0 289 61.896"><defs><style>.a{fill:#a57fb2}.b{fill:#66829f}.c{fill:#002f5f}.d{fill:#b2c1cf}</style></defs><path class="a" d="M.931 21.592a3.185 3.185 0 1 1 0 4.5 3.186 3.186 0 0 1 0-4.5Z"/><path class="a" d="M20.812 7.405a39.856 39.856 0 0 1 4.28-3.718A27.749 27.749 0 0 0 5.828 19.033a5.488 5.488 0 0 1-2.574 10.298 29.28 29.28 0 0 0-.045 1.874 37.648 37.648 0 0 0 6.133 8.014 38.478 38.478 0 0 0 4.312 3.717C6.793 33.86 9.707 18.509 20.812 7.405Z"/><path class="b" d="M56.379 35.879a3.185 3.185 0 1 1 0 4.505 3.185 3.185 0 0 1 0-4.505Z"/><path class="b" d="M54.748 42.015a5.49 5.49 0 0 1 3.953-9.373c.044-.725.069-1.453.061-2.183a37.662 37.662 0 0 0-6.138-8.014 38.41 38.41 0 0 0-4.3-3.717c6.863 9.073 3.941 24.426-7.159 35.529a40.8 40.8 0 0 1-4.281 3.725 27.763 27.763 0 0 0 19.11-15.039 5.628 5.628 0 0 1-1.246-.928Z"/><g><path class="c" d="M36.188.932a3.188 3.188 0 1 1 0 4.507 3.194 3.194 0 0 1 0-4.507Z"/><path class="c" d="M50.845 11.4a27.7 27.7 0 0 0-7.629-5.517 5.487 5.487 0 0 1-10.264-2.752 27.22 27.22 0 0 0-2.038-.081 37.671 37.671 0 0 0-8.079 6.052 38.769 38.769 0 0 0-3.766 4.267c9.156-6.765 24.47-3.683 35.454 7.542a41 41 0 0 1 3.677 4.324A27.665 27.665 0 0 0 50.845 11.4Z"/></g><g><path class="d" d="M21.202 56.458a3.184 3.184 0 1 1 0 4.5 3.184 3.184 0 0 1 0-4.5Z"/><path class="d" d="M19.574 54.828a5.483 5.483 0 0 1 9.363 3.7c.71.051 1.418.086 2.124.086a37.871 37.871 0 0 0 8.081-6.052 39.068 39.068 0 0 0 3.765-4.264c-9.151 6.759-24.47 3.675-35.454-7.547a41.766 41.766 0 0 1-3.679-4.322A27.751 27.751 0 0 0 18.8 55.8a5.44 5.44 0 0 1 .774-.972Z"/></g><g><path class="c" d="M91.563 40.088V28.903h-12.3v11.185h-2.786V16.303h2.788v10.743h12.3V16.303h2.787v23.78ZM101.635 31.059c0 3.79 1.968 7.208 6.13 7.208a19.957 19.957 0 0 0 5.723-.891v2.008a16.173 16.173 0 0 1-6.02 1.113c-5.946 0-8.657-3.975-8.657-9.622 0-5.351 2.6-9.92 8.47-9.92 5.055 0 7.135 4.273 7.135 8.769v1.336Zm5.461-8.136c-3.233 0-5.35 3.454-5.35 6.39h10.182c0-2.86-1.525-6.39-4.832-6.39ZM119.333 40.088V15.081h2.787v25.007ZM135.733 40.61a7.519 7.519 0 0 1-6.018-3.2v9.1h-2.787V21.399h2.787v1.487a11.366 11.366 0 0 1 6.353-1.9c5.315 0 7.357 5.2 7.357 9.772 0 4.835-2.154 9.852-7.692 9.852Zm-.408-17.315a9.933 9.933 0 0 0-5.61 1.857v8.36c0 2.268 3.678 4.756 5.759 4.756 4.013 0 5.127-3.826 5.127-7.17-.001-3.382-1.114-7.803-5.276-7.803ZM166.502 40.275c-1.449 0-1.969-1.3-1.744-2.564a6.28 6.28 0 0 1-5.723 2.786 4.988 4.988 0 0 1-5.055-5.052c0-5.721 6.13-7.06 10.7-7.245v-1.115c0-2.268-1.227-4.161-3.642-4.161a18.422 18.422 0 0 0-4.831 1.04v-1.3a10.74 10.74 0 0 1 5.574-1.783 5.412 5.412 0 0 1 5.686 5.646l-.038 8.769a11.327 11.327 0 0 0 .3 3.2c.261.335.709.261 1.079.223v1.374c-.782.071-1.525.182-2.306.182Zm-1.859-10.111c-2.749.038-7.877.818-7.877 4.46 0 2.266 1.041 3.64 3.418 3.64 3.827 0 4.459-3.343 4.459-6.465ZM178.915 40.496c-4.014 0-5.127-1.969-5.127-5.8V23.442h-2.676v-1.374c2.489-.743 3.455-2.081 4.161-4.608l1.3-.3v4.235h5.834v2.044h-5.834v11.114c0 2.005.223 3.938 2.712 3.938a15.449 15.449 0 0 0 3.457-.446v1.188a7.952 7.952 0 0 1-3.827 1.263ZM208.991 40.088V29.61h-10.1v10.478h-4.943V16.303h4.943v9.63h10.1v-9.63h4.944v23.78ZM227.166 40.571c-6.318 0-9.7-3.826-9.7-10.031 0-6.28 3.381-9.736 9.7-9.736 6.129 0 9.7 3.643 9.7 9.736-.005 6.242-3.348 10.031-9.7 10.031Zm0-16.422c-3.606 0-4.793 3.418-4.793 6.465s1.077 6.835 4.793 6.835c3.753 0 4.83-3.752 4.83-6.835-.001-3.046-1.228-6.465-4.83-6.465ZM263.582 40.088V28.794c0-2.081-.445-4.236-2.971-4.236a7.731 7.731 0 0 0-3.864 1.3 6.866 6.866 0 0 1 .149 1.522v12.708h-4.943V28.794c0-2.044-.261-4.236-2.824-4.236a7.612 7.612 0 0 0-3.864 1.3v14.23h-4.942V21.399h4.942v1.862a11.369 11.369 0 0 1 6.092-2.454 4.928 4.928 0 0 1 4.757 2.787c1.784-1.188 4.532-2.787 6.688-2.787 4.014 0 5.723 2.9 5.723 6.577v12.704ZM288.923 31.692h-12.222c.111 3.752 2.71 5.573 6.279 5.573a21.421 21.421 0 0 0 5.35-.855v2.9a17.366 17.366 0 0 1-6.763 1.262c-5.944 0-9.846-4.123-9.846-10.031 0-5.685 3.307-9.736 9.177-9.736 5.759 0 8.1 4.348 8.1 9.588.002.407-.037.853-.075 1.299Zm-8.025-7.731c-2.453 0-4.014 2.415-4.2 4.644h8.249c-.073-2.45-1.373-4.644-4.049-4.644Z"/></g></svg>