<svg xmlns="http://www.w3.org/2000/svg" viewBox="0 0 341 298.234"><defs><style>.a{fill:#aacbe8}.c{fill:#cb7c5d}.d{fill:#e3d6c6}.e{fill:#224767}.g{fill:#fff}.h{fill:#302c38}.j{fill:#2b2b2b}.k{fill:#232323}.l{fill:#ad604e}.m{fill:rgba(173,96,78,.6)}</style></defs><path class="a" d="m135.544 263.298-99.3 27.6 111.4-27.895ZM72.037 290.17l157.95-28.985 12.287 1.6-167.118 28.111ZM185.367 30.253s6.316 4.449 13.693 2.448c2.791-.757 7.409 2.629 11.949 2.266 7.523-.6 10.028-5.7 14.6-8.166 8.322-4.488 11.865.35 20.653 1.052 16.757 1.338 13.77-14.215 13.77-14.215s-4.672 7.7-22.916-4.983c-11.4-7.93-42.417-12.725-51.31-3.983-10.351 10.179-.439 25.581-.439 25.581ZM168.965 67.001s28.988 1.161 46.027 18.394 24.947 45.9 46.026 42.458c7.333-1.2 20.8-4.647 25.226-15.711s18.589 1.328 27.218-2.213 14.384-6.867 8.852-24.534c-2.263-7.228 20.358-7.772 18.588-23.263 0 0-15.047 10.6-60.19-9.737-26.757-12.053-100.957-19.271-112.734-12.388-18.53 10.829.987 26.994.987 26.994Z"/><path class="a" d="M134.45 263.823c.1-1.379 4.1-3.22 6.742-3.843-.709.468-1.57 1.139-.433 1.436 1.662.436 5.279-.162 6.327-1.378a7.63 7.63 0 0 1 .556 2.964c.009 1.095-13.261 1.755-13.192.821Z"/><path class="a" d="M140.759 261.416c-1.137-.3-1.5-1.078.219-1.394a12.861 12.861 0 0 0 3.054-1c.719-.339.964-1.5.964-1.5l.777-1.765s1.191 4.024 1.313 4.28c-1.048 1.216-4.664 1.81-6.327 1.379ZM242.275 262.765c.029-1.328-4.17-3.129-6.825-3.694.718.452 1.594 1.1.465 1.426-1.653.472-5.282-.047-6.356-1.24a7.616 7.616 0 0 0-.491 2.976c.019 1.095 13.185 1.47 13.207.532Z"/><path class="a" d="M235.915 260.493c1.129-.323 1.476-1.111-.249-1.389a12.881 12.881 0 0 1-3.076-.932c-.726-.322-1-1.479-1-1.479l-1.389-.034s-.53 2.335-.647 2.593c1.079 1.199 4.708 1.718 6.361 1.241Z"/><path class="a" d="M156.557 82.253c5.21-3.3-10.218 12.748-13.783 19.272-18.367 33.609 1.714 136.271 1.72 156.252 0 2.7 1.363 2.067 1.943-1.213 1.706-9.645 6.647-42.186 11.794-73.337 5.552-33.6 12.946-65.387 12.946-65.387 3.335 10.94 18.123 42.43 23.9 57.586 19.059 50.01 35.374 82.292 35.374 82.292l1.4-.3s-12.525-57.9-16.892-84.712c-2.367-14.524-6.034-44.05-12.207-62.9-3.284-10.033-9.569-19.243-10.424-21.125-5.842-2.092-26.344-5.959-35.771-6.428ZM213.252 46.936S201.839 35.8 173.859 36.307c-5.646.1 9.577 9.122 9.577 9.122Z"/><path class="a" d="M194.338 78.73c-2.172 8.637-1.411 12.495-1.411 12.495s-14.754 2.763-37.979-5.528c0 0-2.318-27.972 1.616-39.208.715-2.04 1.3-6.511 3.851-7.744 10.418-5.038 41.13 2.744 45.133 11.38 1.204 2.594-8.451 17.644-11.21 28.605Z"/><path class="a" d="M192.927 44.596s9.425 1.392 16.723 7.5c7.42 6.212 17.386 12.866 17.672 21.475.327 9.838-13.765 29.758-24.713 27.6-4.072-.8-3.541-7.356-3.541-7.356l17.578-22.234-16.054-15.555Z"/><path class="a" d="M199.702 95.758s-.059-5.06-1.727-5.416-4.377-1.02-4.719-.355 1.658 1.108 1.658 1.108a14.578 14.578 0 0 0-1.936.978c-.254.247.7.72.7.72a.878.878 0 0 0-.554.787c-.05.626 1.45.132 2.163.441s1.775 3 3.176 3.686c.519.255 1.322-.556 1.239-1.949ZM174.373 37.165s-10.337-.055-16.91 2.224c-9.143 3.169-21.409 11.157-24.986 18.993-4.088 8.954-.407 30.974 10.527 33.2 4.067.827 6.1-5.427 6.1-5.427l-6.007-25.5 21.068-15.557Z"/><path class="a" d="M146.931 88.263s2-4.649 3.678-4.335 4.431.743 4.493 1.489-1.957.385-1.957.385a14.643 14.643 0 0 1 1.411 1.647c.139.327-.924.4-.924.4a.876.876 0 0 1 .208.939c-.195.6-1.39-.435-2.166-.425s-2.791 2.082-4.35 2.179c-.576.032-1.008-1.026-.393-2.279Z"/><g><path class="a" d="M172.615 90.399s-.756-.1-1.139-.159c-5.536-.806-9.974-2.208-16.528-4.548 0 0-2.318-27.972 1.616-39.208.715-2.04 1.3-6.511 3.851-7.744 4.193-2.029 11.673-1.979 19.377-.633.336.059 1.89.426 1.89.426a55.791 55.791 0 0 0-10.113 23.5c-1.962 12.235 1.046 28.366 1.046 28.366Z"/></g><g><path class="a" d="M165.86 37.348c.082-.117 12.38-2.569 16.992.012 3.411 1.909-.705 1.307-3.081.863a4.788 4.788 0 0 0-4.4 1.373c-1.086 1.173-.666 4.584.613 7.341.1.217.284.374.477.232 3.048-2.24 6-5.3 9.162-6.31 14.724-4.7 22.6 2.373 28.581 7.965 2.563 2.4 17.729 24.773 1.781 8.575-14.158-14.381-35.305-8.685-40.109-9.382-.987-.143-8.6-4.577-10.119-8.037a2.834 2.834 0 0 1 .103-2.632Z"/></g><g><path class="a" d="M184.215 31.817s-.694 7.179-1.338 7.845-2.575 1.279-3.14-.7 1.85-7.8 1.85-7.8Z"/><path class="a" d="M183.831 35.17c-1.01.806-2.674 1.283-3.738.337a27.311 27.311 0 0 1 .9-2.8l3.04.753c-.112 1.024-.002.525-.202 1.71Z"/></g><g><path class="a" d="M178.356 27.832c.02-.825 1.35-3.31 2.527-5.354a3.48 3.48 0 0 1 4.83-1.228c2.589 1.578 5.36 3.477 5.874 4.428.806 1.491-.128 3.3-.794 4.667a10.937 10.937 0 0 1-3.747 4.252 6.968 6.968 0 0 1-5.125-.271c-3.627-2.014-4.166-3.514-3.565-6.494Z"/></g><g><path d="M23.765 142.67c.043 0 .05.067.007.067s-.049-.067-.007-.067Z" fill="#e6e9f0"/><path class="c" d="M66.593 274.355c.042.788.113 1.986.225 3.452.081 1.054.152 1.786.171 2.056a66.46 66.46 0 0 1 .143 6.552 5.256 5.256 0 0 0 2.527 2.37 5.187 5.187 0 0 0 5.253-.728 5.1 5.1 0 0 0 1.685-2.712 18.068 18.068 0 0 1-2.313-5.553 22.773 22.773 0 0 1-.408-3.3 33.474 33.474 0 0 1-.089-2.648Z"/><path class="d" d="M67.132 286.418a5.254 5.254 0 0 0 2.527 2.37 5.187 5.187 0 0 0 5.253-.728 5.1 5.1 0 0 0 1.685-2.712c.343.828.828 2.042 1.371 3.54a15.378 15.378 0 0 1 .8 2.527.782.782 0 0 1 .014.129c.228 2.013-1.356 4.211-1.642 4.582-.928 1.256-1.385 1.87-2.113 2.055-1 .229-1.884-.3-3.583-1.328a7.675 7.675 0 0 1-2.127-1.77 12.677 12.677 0 0 1-.785-1.3 13.467 13.467 0 0 1-1.128-4.568 26.179 26.179 0 0 1-.271-2.612 1.167 1.167 0 0 1-.014-.214c-.001.015.013.015.013.029Z"/><path class="c" d="M27.146 286.005a14.612 14.612 0 0 1 1.759 1.458c1.065 1.035 1.134 1.421 1.627 1.8 1.73 1.328 5.07-.211 5.764-.53 2.322-1.07 2.583-2.166 5.371-3.41a15.789 15.789 0 0 1 2.389-.843c-.1-.683-.249-1.77-.451-3.113a34.4 34.4 0 0 1-.459-3.484 15.789 15.789 0 0 1 .232-3.524l-8.308-.343a7.526 7.526 0 0 1-.531 3.566l-1.7 2.87a21.73 21.73 0 0 1-4.068 4.311q-.661.557-1.625 1.242Z"/><path class="d" d="M21.18 288.817c3.1-1.956 4.654-2.941 5.5-2.884a4.158 4.158 0 0 1 .471.071c2.425.484 3.53 2.023 4.425 2.555 3.39 2.018 10.711-6.323 12.547-4.795.129.107.206.345.358.819.6 1.877-.367 2.544-.257 5.018.037.823-.066 1.649-.009 2.471a1.352 1.352 0 0 1-.234 1.083 1.225 1.225 0 0 1-.814.228c-3.769.4-3.883-.157-5.567 0-.171.014-.571.057-.757-.185s-.057-.514-.086-1.157a4.4 4.4 0 0 0-.1-.785 10.276 10.276 0 0 0-3.526.771 20.765 20.765 0 0 1-2.4 1.056 9 9 0 0 1-2.783.343c-3.084-.028-9.379-.114-10.635-.143-.286-.014-.381-.372-.428-.6-.173-.828.997-1.753 4.295-3.866Z"/><path class="e" d="M77.615 173.195c-.042-3.1-.176-8.19-.685-14.561l-46.778-.1c-.944 2.887-1.345 9.238-.9 20.581 0 0 1.121 27.643 2.681 71.349.808 22.64-.173 23.649 1.767 24.211 1.081.328 3.139.171 8.148.543a4.115 4.115 0 0 0 2.762-.428 3.584 3.584 0 0 0 .961-2.213c1.994-19.943 3.7-41.65 3.7-41.65 2.855-36.421 3.5-47.9 4.16-47.878.727.022.6 14.026 2.007 30.148.665 7.623 2.6 26.908 3.737 34.9v.014c1.228 10.135 2.737 21.313 3.859 25.995.609 2.479 3.312 1.511 6.1 1.271 4.006-.345 4.344.018 5.281-.743a4.69 4.69 0 0 0 1.526-3.569c.947-23.84.017-34.446.017-34.446-1.516-18.132 2.024-35.91 1.657-63.424Z"/><path d="M24.047 108.049c1.735-11.989 2.6-17.983 7.323-21.2.86-.586.491-.174 9.379-3.6 3.079-1.186 5.6-2.187 7.258-2.856l14.218-.257c1.908.934 4.763 2.351 8.2 4.141 6.5 3.383 9.756 5.075 10.532 5.794 0 0 4.865 4.5 5.362 25.191a2.431 2.431 0 0 1-.585 1.856 1.557 1.557 0 0 1-.956.357 4 4 0 0 1-.771-.028 48.207 48.207 0 0 0-5.541-.191c.724 25.324 1.2 42.344 1.288 45.4a4.453 4.453 0 0 1-.886 3.094c-1.184 1.35-3.254 1.036-6.657 1.028-2.376-.006-4.742.364-7.118.385-28.752.26-29.746.259-31.734.257-.954 0-3.372 0-4.788-1.6a5.547 5.547 0 0 1-1.093-4.006c.28-4.111.682-23.013 1.223-49.122a9.925 9.925 0 0 0-2.471-.663c-.872-.117-1.192-.041-1.542-.257-1.061-.659-.746-3.001-.641-3.723Z" fill="#2b5c86"/><path class="e" d="M69.361 117.545h.026a.357.357 0 0 0 .331-.381 138.788 138.788 0 0 1-.053-18.951.356.356 0 0 0-.332-.379.347.347 0 0 0-.38.332 139.824 139.824 0 0 0 .053 19.052.357.357 0 0 0 .355.327ZM30.458 111.855a.356.356 0 0 0 .356-.339l.642-12.848a.357.357 0 1 0-.713-.036l-.642 12.848a.358.358 0 0 0 .338.375Z"/><path class="c" d="M38.299 118.09a17.457 17.457 0 0 1 1.713.029 13.8 13.8 0 0 1 3.617.653 14.556 14.556 0 0 1 2.222.986c.494.257.9.5 1.256.717l24.58 4.118q-.126-3.543-.255-7.091a104.464 104.464 0 0 1 12.577-.057 3.771 3.771 0 0 0 .771.028l-.557 14.361h-.027a4.05 4.05 0 0 1-.616 1.757c-2.981 4.533-15.494 1.386-23.9-.728a117.064 117.064 0 0 1-12.22-3.795c-.742.057-5.51.528-5.824.557a2013.67 2013.67 0 0 1-5.668-11.277 16.083 16.083 0 0 1 2.331-.258Z"/><g><path class="g" d="M65.344 112.174c.08-1.233-.147-3.538-.159-4.823-.009-1.049.123-1.693-.276-1.952-.067-.044-.151-.077-1.059-.09-.533-.008-.938 0-1.255 0-.293 0-.724 0-1.254-.019 0 0-1.452.016-2.7.041v-.016l-.284.005v.016a78.277 78.277 0 0 0-2.661.041.516.516 0 0 0-.33.117.506.506 0 0 0-.124.361c-.057 3.109-.052 4.105-.043 6.1 0 .12 0 .485.221.635a.468.468 0 0 0 .3.065c.6-.045 7.066.069 8.407.177.2.017.813.075 1.081-.272a.686.686 0 0 0 .136-.386Z"/><path class="h" d="M59.416 107.031c-.192-.232-.205-.747-.225-1.766-.026-1.4.114-1.641.225-1.767a.988.988 0 0 1 .779-.289.941.941 0 0 1 .742.289c.215.26.169.573.142 1.863-.028 1.314.011 1.469-.142 1.672a1.009 1.009 0 0 1-1.521-.002Z"/></g><path class="h" d="M35.968 118.347a16.083 16.083 0 0 1 2.327-.257 49.281 49.281 0 0 0 3.555-4.682 1.2 1.2 0 0 0 .143-.942.938.938 0 0 0-.742-.6c-.485-.043-.871.457-1.085.714a50.533 50.533 0 0 0-3.212 4.34c-.208.316-.546.816-.986 1.427Z"/><g><path d="M1.14 106.242c5.639 10.549 9.422 22.041 15.346 32.433a4.365 4.365 0 0 0 4.539 2.369c2.9-.257 16.274-.5 22.1-.086.757.057 2.427.186 3.041-.728.714-1.071-.414-2.969-.828-3.669-.8-1.37-2.127-3.883-3.7-6.938-1.713-3.369-12.434-25.1-12.99-26.366a4.126 4.126 0 0 0-1.413-1.8 4.471 4.471 0 0 0-2.712-.628c-2 .1-3.826.171-5.51.229-4.754.186-8.294.257-10.806.257-3.74.029-5.253-.057-5.253-.057-.628-.043-2.041-.143-2.655.671-.872 1.172.398 3.485.841 4.313Z" fill="#b59cb7"/><path class="h" d="M8.211 101.06v.257c2.512 0 6.053-.071 10.806-.257a1.452 1.452 0 0 0-.357-1.2c-.685-.642-1.77.229-3.126-.542-.728-.4-.857-.9-1.742-1.142a2.108 2.108 0 0 0-1.342 0c-.842.314-.657 1.07-1.442 1.527-1 .6-2.084-.171-2.6.486-.158.198-.173.414-.197.871Z"/><path class="c" d="M6.28 125.726a2.041 2.041 0 0 0 .211 1.771 1.316 1.316 0 0 0 1.066.533 2.482 2.482 0 0 0 2 2.723c0 .021-.022.032-.024.056a1.7 1.7 0 0 0 .477 1.322 1.521 1.521 0 0 0 1.46.384 10.4 10.4 0 0 0 2.766-.819 6.173 6.173 0 0 0 1.277-.778 3.978 3.978 0 0 0 .984-1.053.829.829 0 0 0-.255-1.163 1.068 1.068 0 0 0-.865-.111 5.685 5.685 0 0 0 .766-.593c.437-.412 1.044-1.093.8-1.744-.235-.614-1.017-.753-1.586-.823a7.687 7.687 0 0 0-.625-.049c.249-.111.5-.212.748-.329.542-.258 1.192-.618 1.113-1.328a1.28 1.28 0 0 0-1.32-1 5.586 5.586 0 0 0-.887.023c.623-.415 1.547-.886 1.644-1.716a1.092 1.092 0 0 0-.341-.937 1.39 1.39 0 0 0-1.17-.166 45.334 45.334 0 0 0-6.026 2.1c-.351-.808-1.584-3.633-1.848-4.233a14.086 14.086 0 0 0-.862 2.874 7.66 7.66 0 0 0 0 3.889 6.016 6.016 0 0 0 .497 1.167Z"/></g><g><path class="j" d="M41.062 46.348a13.03 13.03 0 0 1 6.745-2.762 18.267 18.267 0 0 1 6.238 0c.241.037.507.078.793.128a2.65 2.65 0 0 1 .42-1.094c1.68-2.385 7.917-1.966 10.085 1.285.114.171 1.646 2.546.535 4.647a3.457 3.457 0 0 1-.69.886 15.685 15.685 0 0 1 1.632 2.369 15.123 15.123 0 0 1 1.8 5.4 13.976 13.976 0 0 1-1.028 7.195 15.451 15.451 0 0 1-3.212 4.5 19.15 19.15 0 0 1-2.156 1.927l-22.094-9.4a8.8 8.8 0 0 1-1.314-1.363 10.156 10.156 0 0 1-1.293-2.322c-.789-2.096-.583-7.812 3.539-11.396Z"/><path class="c" d="M62.225 57.78v22.355L51.094 94.124l-3.087-13.732c0-.714.014-3.455.014-3.455a8.616 8.616 0 0 1-3.041-1.313 10.979 10.979 0 0 1-1.67-1.456 10.308 10.308 0 0 1-2.5-4.6.443.443 0 0 0-.028-.115 21.926 21.926 0 0 1-.585-3.969v-.069c-.114-1.727-.114-3.612-.114-5.7 0-4.568.221-6.834 1.3-8.922a10.323 10.323 0 0 1 2.5-3.212 11.223 11.223 0 0 1 18.344 10.192Z"/><path class="k" d="M52.381 62.158a.833.833 0 1 0 .831-.9.866.866 0 0 0-.831.9ZM41.806 62.158a.833.833 0 1 0 .831-.9.866.866 0 0 0-.831.9Z"/><path class="l" d="M49.642 67.913a.129.129 0 0 0-.01-.257c-1.147.031-2.1-.281-2.317-.758a1.381 1.381 0 0 1-.151-.509 8.563 8.563 0 0 1 .008-.9l.1-4.657a.129.129 0 1 0-.257-.006l-.1 4.655a8.653 8.653 0 0 0-.008.928 1.553 1.553 0 0 0 .167.581c.27.591 1.302.988 2.568.923Z"/><path class="j" d="M56.095 58.355a.538.538 0 0 0 .137-.24.621.621 0 0 0-.1-.422c-.384-.616-4.433-1.2-4.994-.656a.487.487 0 0 0-.157.291.6.6 0 0 0 .24.431c.718.648 4.439 1.042 4.874.596Z"/><path class="l" d="M55.059 75.011a7.3 7.3 0 0 1-3.9 3.012 7 7 0 0 1-3.141.229v-1.313a11.572 11.572 0 0 0 2.47-.1 11.119 11.119 0 0 0 4.571-1.828Z"/><path class="j" d="M45.524 57.433a.567.567 0 0 0 .053-.271.617.617 0 0 0-.218-.365c-.526-.459-4.347.3-4.694.989a.512.512 0 0 0-.056.325c.048.2.262.294.343.331.84.379 4.308-.446 4.572-1.009Z"/><path class="m" d="M53.606 67.771a1.844 1.844 0 1 0 1.844-1.844 1.844 1.844 0 0 0-1.844 1.844ZM40.199 65.487a21.356 21.356 0 0 0 .585 3.969 2.022 2.022 0 0 0-.041-4.043 1.894 1.894 0 0 0-.544.074Z"/><path class="j" d="M46.703 49.418a8.035 8.035 0 0 1-1.4 2.212c-1.414 1.58-2.759 1.56-3.9 2.852a5.729 5.729 0 0 0-1.31 3.58 10.913 10.913 0 0 1 .295-6.152 11.214 11.214 0 0 1 5.824-6.252 11.656 11.656 0 0 1 7.794-.685 11.92 11.92 0 0 1 6.938 5.139 12.332 12.332 0 0 1 1.414 9.417 10.571 10.571 0 0 0-1.658-2c-.06-.052-.353-.3-.747-.655-.291-.263-.488-.45-.584-.538-3.075-2.821-9.7-1.749-12.029-5.355a4.741 4.741 0 0 1-.637-1.563Z"/><path class="c" d="M59.655 67.048c3.813-1.456 6.119-4.062 5.847-6.324a3.277 3.277 0 0 0-1.994-2.716c-1.335-.426-3.063.369-4.082 2.081Z"/><path class="l" d="M64.037 60.185a2.561 2.561 0 0 0-1.82.865 2.416 2.416 0 0 0-.534 1.924.084.084 0 0 0 .167-.021 2.374 2.374 0 0 1 .04-.671 1.221 1.221 0 0 1 .746-.209 1.069 1.069 0 0 1 .708.37.129.129 0 1 0 .191-.173 1.273 1.273 0 0 0-.884-.426 1.376 1.376 0 0 0-.711.189 2.133 2.133 0 0 1 .459-.825 2.5 2.5 0 0 1 1.649-.78.127.127 0 0 0 .118-.129.122.122 0 0 0-.129-.114Z"/><path class="g" d="M45.52 71.039c-.128.473.737 1.044 1.32 1.295a4.268 4.268 0 0 0 2.939.052c.6-.231 1.475-.771 1.364-1.247a.637.637 0 0 0-.319-.359c-.667-.4-1.3.2-2.542.171-1.19-.033-1.754-.617-2.415-.266a.649.649 0 0 0-.347.354Z"/></g></g></svg>